<svg width="33" height="32" viewBox="0 0 33 32" fill="none" xmlns="http://www.w3.org/2000/svg">
<path fill-rule="evenodd" clip-rule="evenodd" d="M22.0833 4.32373H11.4167C7.73477 4.32373 4.75 7.3085 4.75 10.9904V21.6571C4.75 25.3389 7.73477 28.3237 11.4167 28.3237H22.0833C25.7652 28.3237 28.75 25.3389 28.75 21.6571V10.9904C28.75 7.3085 25.7652 4.32373 22.0833 4.32373ZM26.4167 21.6571C26.4093 24.0472 24.4735 25.9831 22.0833 25.9904H11.4167C9.02647 25.9831 7.09065 24.0472 7.08333 21.6571V10.9904C7.09065 8.6002 9.02647 6.66438 11.4167 6.65706H22.0833C24.4735 6.66438 26.4093 8.6002 26.4167 10.9904V21.6571ZM23.0833 11.3237C23.8197 11.3237 24.4167 10.7268 24.4167 9.9904C24.4167 9.25402 23.8197 8.65706 23.0833 8.65706C22.3469 8.65706 21.75 9.25402 21.75 9.9904C21.75 10.7268 22.3469 11.3237 23.0833 11.3237ZM16.75 10.3237C13.4363 10.3237 10.75 13.01 10.75 16.3237C10.75 19.6375 13.4363 22.3237 16.75 22.3237C20.0637 22.3237 22.75 19.6375 22.75 16.3237C22.7536 14.7313 22.1225 13.2032 20.9965 12.0772C19.8705 10.9512 18.3424 10.3202 16.75 10.3237ZM13.0833 16.3237C13.0833 18.3488 14.7249 19.9904 16.75 19.9904C18.7751 19.9904 20.4167 18.3488 20.4167 16.3237C20.4167 14.2987 18.7751 12.6571 16.75 12.6571C14.7249 12.6571 13.0833 14.2987 13.0833 16.3237Z" fill="white"/>
</svg>
