<svg width="33" height="32" viewBox="0 0 33 32" fill="none" xmlns="http://www.w3.org/2000/svg">
<path fill-rule="evenodd" clip-rule="evenodd" d="M6.25 4.32373C5.14543 4.32373 4.25 5.21916 4.25 6.32373V26.3237C4.25 27.4283 5.14543 28.3237 6.25 28.3237H26.25C27.3545 28.3237 28.25 27.4283 28.25 26.3237V6.32373C28.25 5.21916 27.3545 4.32373 26.25 4.32373H6.25ZM11.611 9.66069C11.6185 10.9357 10.6641 11.7213 9.53164 11.7157C8.46476 11.7101 7.53476 10.8607 7.54039 9.66257C7.54601 8.53569 8.43664 7.63006 9.59352 7.65632C10.7673 7.68257 11.6185 8.5432 11.611 9.66069ZM16.6229 13.3394H13.2629H13.2611V24.7525H16.8123V24.4863C16.8123 23.9797 16.8119 23.4731 16.8115 22.9663C16.8104 21.6145 16.8092 20.2613 16.8161 18.91C16.818 18.5819 16.8329 18.2407 16.9173 17.9275C17.2341 16.7575 18.2861 16.0019 19.4599 16.1876C20.2136 16.3056 20.7123 16.7425 20.9223 17.4532C21.0517 17.8975 21.1099 18.3756 21.1155 18.8388C21.1307 20.2356 21.1285 21.6324 21.1264 23.0293C21.1256 23.5224 21.1248 24.0157 21.1248 24.5088V24.7507H24.6873V24.4769C24.6873 23.8743 24.6871 23.2717 24.6867 22.6692C24.686 21.1632 24.6852 19.6572 24.6892 18.1507C24.6911 17.47 24.618 16.7988 24.4511 16.1407C24.2017 15.1619 23.6861 14.3519 22.848 13.7669C22.2536 13.3507 21.6011 13.0825 20.8717 13.0525C20.7887 13.0491 20.7049 13.0446 20.6208 13.04C20.2479 13.0199 19.8688 12.9994 19.5123 13.0713C18.4923 13.2757 17.5961 13.7425 16.9192 14.5656C16.8405 14.66 16.7636 14.7559 16.6488 14.8989L16.6229 14.9313V13.3394ZM7.82552 24.7563H11.3599V13.3468H7.82552V24.7563Z" fill="white"/>
</svg>
