<svg width="41" height="40" viewBox="0 0 41 40" fill="none" xmlns="http://www.w3.org/2000/svg">
<rect x="0.195312" width="40" height="40" rx="20" fill="#2B2A80"/>
<path d="M22.3093 26.3374L28.0868 20.5483C28.4145 20.2206 28.4318 19.778 28.0869 19.4331L22.3035 13.6497C21.9816 13.3278 21.5159 13.3565 21.24 13.6324C20.964 13.9084 20.9755 14.3913 21.2457 14.6615L23.2463 16.6621L26.1437 19.3755L24.1374 19.2433L12.7317 19.2548C12.5247 19.2548 12.335 19.3296 12.2085 19.456C11.9326 19.732 11.9211 20.2379 12.2085 20.5253C12.3408 20.6575 12.5132 20.738 12.7259 20.7323L24.1374 20.738L26.161 20.6115L23.3728 23.1928L21.2457 25.3198C20.9755 25.59 20.9583 26.0787 21.24 26.3604C21.5159 26.6363 21.9988 26.6479 22.3093 26.3374Z" fill="white"/>
</svg>
