<svg width="23" height="23" viewBox="0 0 23 23" fill="none" xmlns="http://www.w3.org/2000/svg">
<g clip-path="url(#clip0_11975_19533)">
<path d="M8.52254 14.5671C7.79254 14.5671 7.20254 13.9771 7.20254 13.2471C7.20254 12.5171 7.79254 11.9271 8.52254 11.9271C9.25254 11.9271 9.84254 12.5171 9.84254 13.2471C9.84254 13.9771 9.25254 14.5671 8.52254 14.5671ZM14.3625 16.3971C13.5525 16.9771 12.5825 17.2571 11.6025 17.2071C10.6125 17.2571 9.64254 16.9571 8.85254 16.3771C8.72254 16.2671 8.53254 16.2671 8.40254 16.3771C8.25254 16.4971 8.23254 16.7271 8.35254 16.8771C9.29254 17.5871 10.4425 17.9471 11.6225 17.8971C12.8025 17.9471 13.9525 17.5871 14.8925 16.8771V16.9271C15.0325 16.7871 15.0425 16.5471 14.8925 16.4071C14.7425 16.2671 14.5125 16.2571 14.3725 16.4071L14.3625 16.3971ZM14.6425 11.9671C13.9125 11.9671 13.3225 12.5571 13.3225 13.2871C13.3225 14.0171 13.9125 14.6071 14.6425 14.6071V14.6571H14.7025C15.4325 14.6271 16.0025 14.0171 15.9725 13.2871C15.9725 12.5571 15.3825 11.9671 14.6525 11.9671H14.6425ZM22.6025 11.8971C22.6025 17.9771 17.6825 22.8971 11.6025 22.8971C5.52254 22.8971 0.602539 17.9771 0.602539 11.8971C0.602539 5.81709 5.52254 0.897095 11.6025 0.897095C17.6825 0.897095 22.6025 5.81709 22.6025 11.8971ZM20.4125 11.9171C20.3725 10.8571 19.4825 10.0171 18.4125 10.0571C17.9425 10.0771 17.4925 10.2671 17.1425 10.5971C15.6425 9.56709 13.8725 9.00709 12.0525 8.96709L12.9125 4.84709L15.7425 5.43709C15.8225 6.16709 16.4725 6.68709 17.2025 6.60709C17.9325 6.52709 18.4525 5.87709 18.3725 5.14709C18.2925 4.41709 17.6425 3.89709 16.9125 3.97709C16.4925 4.01709 16.1225 4.26709 15.9125 4.62709L12.6725 3.97709C12.4525 3.92709 12.2325 4.06709 12.1825 4.28709L11.2025 8.87709C9.36254 8.90709 7.57254 9.46709 6.04254 10.5071C5.26254 9.77709 4.04254 9.81709 3.31254 10.5971C2.58254 11.3771 2.62254 12.5971 3.40254 13.3271C3.55254 13.4671 3.73254 13.5871 3.92254 13.6771C3.91254 13.8671 3.91254 14.0671 3.92254 14.2571C3.92254 17.2171 7.37254 19.6271 11.6325 19.6271C15.8925 19.6271 19.3425 17.2171 19.3425 14.2571C19.3525 14.0671 19.3525 13.8671 19.3425 13.6771C20.0025 13.3471 20.4225 12.6571 20.4125 11.9171Z" fill="white"/>
</g>
<defs>
<clipPath id="clip0_11975_19533">
<rect width="22" height="22" fill="white" transform="translate(0.602539 0.897095)"/>
</clipPath>
</defs>
</svg>
