<svg width="32" height="32" viewBox="0 0 32 32" fill="none" xmlns="http://www.w3.org/2000/svg">
<path d="M28.7906 9.60385C28.6388 9.04038 28.342 8.52652 27.9298 8.1134C27.5176 7.70029 27.0044 7.40233 26.4413 7.24918C24.3533 6.67585 16 6.66651 16 6.66651C16 6.66651 7.64795 6.65718 5.55862 7.20518C4.99585 7.36538 4.48371 7.66755 4.07137 8.08269C3.65903 8.49784 3.36033 9.01201 3.20395 9.57585C2.65328 11.6638 2.64795 15.9945 2.64795 15.9945C2.64795 15.9945 2.64262 20.3465 3.18928 22.4132C3.49595 23.5558 4.39595 24.4585 5.53995 24.7665C7.64929 25.3398 15.98 25.3492 15.98 25.3492C15.98 25.3492 24.3333 25.3585 26.4213 24.8118C26.9846 24.659 27.4983 24.3617 27.9115 23.9494C28.3247 23.5371 28.6231 23.0242 28.7773 22.4612C29.3293 20.3745 29.3333 16.0452 29.3333 16.0452C29.3333 16.0452 29.36 11.6918 28.7906 9.60385ZM13.328 20.0065L13.3346 12.0065L20.2773 16.0132L13.328 20.0065Z" fill="white"/>
</svg>
