<svg width="42" height="52" viewBox="0 0 42 52" fill="none" xmlns="http://www.w3.org/2000/svg">
<path d="M31.9399 1.05762L31.9878 1.0625C32.034 1.07151 32.0771 1.09318 32.1118 1.12598L32.6636 1.66602C38.2839 7.34434 41.562 16.229 41.562 26.168C41.5619 36.4276 38.0687 45.3403 32.6001 50.7646C32.5533 50.811 32.4902 50.8378 32.4243 50.8379H29.1685C29.0305 50.8379 28.9186 50.7258 28.9185 50.5879V50.2793C28.9185 50.2148 28.9431 50.1529 28.9878 50.1064C34.9646 43.9115 38.0697 35.3085 38.0698 26.168C38.0698 17.3537 35.155 8.63649 29.144 2.39062L28.5532 1.79395C28.5053 1.74693 28.478 1.6824 28.478 1.61523V1.30762L28.4829 1.25684C28.5064 1.14309 28.6073 1.05762 28.728 1.05762H31.9399Z" fill="#2B2A80" stroke="#2B2A80" stroke-width="0.5" stroke-linejoin="round"/>
<path d="M12.9468 50.5879C12.9466 50.7258 12.8348 50.8379 12.6968 50.8379H9.44092C9.37508 50.8378 9.31189 50.811 9.26514 50.7646C3.79652 45.3403 0.303302 36.4276 0.303223 26.168C0.303223 15.9081 3.7966 6.77162 9.75342 1.12598L9.79053 1.09668C9.83044 1.0712 9.87729 1.05762 9.92529 1.05762H13.1372L13.188 1.0625C13.3017 1.08594 13.3872 1.18692 13.3872 1.30762V1.61523C13.3872 1.68241 13.36 1.74693 13.312 1.79395C6.90096 8.07415 3.79541 17.0695 3.79541 26.168C3.79549 35.3085 6.90062 43.9115 12.8774 50.1064C12.9221 50.1529 12.9467 50.2148 12.9468 50.2793V50.5879Z" fill="#2B2A80" stroke="#2B2A80" stroke-width="0.5" stroke-linejoin="round"/>
</svg>
