<svg width="21" height="25" viewBox="0 0 21 25" fill="none" xmlns="http://www.w3.org/2000/svg">
<path d="M15.5576 0.138428L15.6016 0.147217C15.6156 0.15281 15.6284 0.161024 15.6396 0.171631C18.5061 2.88833 20.1875 7.28438 20.1875 12.2214C20.1875 17.0042 18.6102 21.1791 16.1191 23.8083L15.875 24.0574C15.8525 24.0797 15.8218 24.0925 15.79 24.0925H14.2236C14.1573 24.0925 14.1036 24.0388 14.1035 23.9724V23.824C14.1035 23.793 14.1153 23.7633 14.1367 23.741L14.4023 23.4578C17.1048 20.5006 18.5068 16.4825 18.5068 12.2214C18.5068 7.84333 17.0126 3.51497 13.9277 0.49292C13.9047 0.470345 13.8917 0.439236 13.8916 0.406982V0.258545L13.9004 0.21167C13.9186 0.168422 13.9618 0.138428 14.0117 0.138428H15.5576Z" fill="#2B2A80" stroke="#2B2A80" stroke-width="0.240602" stroke-linejoin="round"/>
<path d="M6.41748 23.9724C6.41738 24.0388 6.36373 24.0925 6.29736 24.0925H4.73096C4.69922 24.0925 4.66853 24.0797 4.646 24.0574C2.01444 21.4472 0.333538 17.1585 0.333496 12.2214C0.333496 7.28459 2.01416 2.88836 4.88037 0.171631L4.91846 0.147217C4.93263 0.141488 4.94781 0.138437 4.96338 0.138428H6.50928L6.55615 0.147217C6.59931 0.165489 6.62939 0.208731 6.62939 0.258545V0.406982C6.62933 0.439236 6.61631 0.470345 6.59326 0.49292C3.50832 3.51497 2.01416 7.84328 2.01416 12.2214C2.0142 16.6199 3.50822 20.7599 6.38428 23.741C6.40564 23.7633 6.41747 23.793 6.41748 23.824V23.9724Z" fill="#2B2A80" stroke="#2B2A80" stroke-width="0.240602" stroke-linejoin="round"/>
</svg>
