<svg width="17" height="26" viewBox="0 0 17 26" fill="none" xmlns="http://www.w3.org/2000/svg">
<path d="M16.4541 24.8662C16.454 24.9326 16.4004 24.9863 16.334 24.9863H14.7676C14.7358 24.9863 14.7051 24.9735 14.6826 24.9512C12.0511 22.341 10.3702 18.0523 10.3701 13.1152C10.3701 8.17839 12.0508 3.78216 14.917 1.06543L14.9551 1.04102C14.9693 1.03529 14.9844 1.03224 15 1.03223H16.5459L16.5928 1.04102C16.6359 1.05929 16.666 1.10253 16.666 1.15234V1.30078C16.666 1.33303 16.6529 1.36414 16.6299 1.38672C13.5449 4.40877 12.0508 8.73708 12.0508 13.1152C12.0508 17.5137 13.5448 21.6537 16.4209 24.6348C16.4423 24.6571 16.4541 24.6868 16.4541 24.7178V24.8662Z" fill="#2B2A80" stroke="#2B2A80" stroke-width="0.240602" stroke-linejoin="round"/>
<path d="M2.00195 1.03223L2.0459 1.04102C2.05998 1.04661 2.07278 1.05482 2.08398 1.06543C4.95042 3.78213 6.63184 8.17818 6.63184 13.1152C6.63179 18.0522 4.95083 22.341 2.31934 24.9512C2.2968 24.9735 2.26611 24.9863 2.23438 24.9863H0.667969C0.601589 24.9863 0.54795 24.9326 0.547852 24.8662V24.7178C0.547863 24.6868 0.559626 24.6571 0.581055 24.6348C3.45712 21.6537 4.95113 17.5137 4.95117 13.1152C4.95117 8.73713 3.45694 4.40876 0.37207 1.38672C0.349025 1.36414 0.335999 1.33303 0.335938 1.30078V1.15234L0.344727 1.10547C0.362958 1.06222 0.406174 1.03223 0.456055 1.03223H2.00195Z" fill="#2B2A80" stroke="#2B2A80" stroke-width="0.240602" stroke-linejoin="round"/>
</svg>
