<svg width="36" height="52" viewBox="0 0 36 52" fill="none" xmlns="http://www.w3.org/2000/svg">
<path d="M34.6611 50.5461C34.661 50.6841 34.5491 50.7961 34.4111 50.7961H31.1553C31.0894 50.7961 31.0262 50.7693 30.9795 50.7229C25.5109 45.2986 22.0177 36.3859 22.0176 26.1262C22.0176 15.8664 25.511 6.72987 31.4678 1.08423L31.5049 1.05493C31.5448 1.02945 31.5916 1.01587 31.6396 1.01587H34.8516L34.9023 1.02075C35.0161 1.04419 35.1016 1.14517 35.1016 1.26587V1.57349C35.1016 1.64066 35.0743 1.70518 35.0264 1.7522C28.6153 8.03241 25.5098 17.0278 25.5098 26.1262C25.5098 35.2668 28.615 43.8697 34.5918 50.0647C34.6365 50.1112 34.6611 50.1731 34.6611 50.2375V50.5461Z" fill="#2B2A80" stroke="#2B2A80" stroke-width="0.5" stroke-linejoin="round"/>
<path d="M4.62695 1.01587L4.6748 1.02075C4.72102 1.02976 4.76415 1.05143 4.79883 1.08423L5.35059 1.62427C10.9709 7.30259 14.249 16.1872 14.249 26.1262C14.2489 36.3859 10.7557 45.2986 5.28711 50.7229C5.24035 50.7693 5.17717 50.7961 5.11133 50.7961H1.85547C1.71749 50.7961 1.60562 50.6841 1.60547 50.5461V50.2375C1.60555 50.1731 1.63014 50.1112 1.6748 50.0647C7.65163 43.8697 10.7568 35.2668 10.7568 26.1262C10.7568 17.3119 7.84203 8.59474 1.83105 2.34888L1.24023 1.7522C1.19227 1.70518 1.16504 1.64066 1.16504 1.57349V1.26587L1.16992 1.21509C1.19337 1.10134 1.29435 1.01587 1.41504 1.01587H4.62695Z" fill="#2B2A80" stroke="#2B2A80" stroke-width="0.5" stroke-linejoin="round"/>
</svg>
