<svg width="50" height="40" viewBox="0 0 50 40" fill="none" xmlns="http://www.w3.org/2000/svg">
<path d="M29.5435 10.2C31.4335 10.2 33.1135 9.24 34.0135 7.67C34.9535 6.11 34.9635 4.2 34.0135 2.54C33.0735 0.98 31.3535 0 29.5435 0C27.7335 0 25.9635 0.95 24.9835 2.55C24.0435 4.19 24.0535 6.1 24.9835 7.64C25.9135 9.26 27.5735 10.19 29.5435 10.19V10.2ZM26.4935 3.44C27.1335 2.38 28.2735 1.75 29.5435 1.75C30.7435 1.75 31.8835 2.4 32.5035 3.42C33.1235 4.5 33.1235 5.75 32.5035 6.78C31.8935 7.84 30.8235 8.45 29.5435 8.45C28.2635 8.45 27.1135 7.84 26.4935 6.76C25.8835 5.75 25.8835 4.5 26.4935 3.44Z" fill="#2B2A80"/>
<path d="M36.4135 20.5501H33.9235C33.7635 20.5501 33.5335 20.3801 33.4835 20.2201L31.9735 14.9801C31.5135 13.4601 30.3435 12.3101 28.7735 11.8401L23.5635 10.1401C23.3835 10.1001 23.1735 10.0501 22.9635 9.99011C21.3835 9.57011 19.6735 9.94011 18.4035 10.9801L11.9435 16.2801C11.2735 16.8301 10.8735 17.6001 10.7935 18.4601C10.7235 19.3201 10.9935 20.1501 11.5535 20.8001C12.1135 21.4401 12.8835 21.8301 13.7335 21.8801C14.5735 21.9501 15.4035 21.6601 16.0335 21.1001L19.3635 18.1901L18.3035 21.2601C17.7835 22.6401 18.0635 24.1401 18.9035 25.3001L17.3835 28.6301C17.0935 29.2901 16.4535 29.7201 15.7335 29.7201H12.9835C11.3835 29.7301 10.0735 30.9901 10.0035 32.5801C9.96354 33.4001 10.2635 34.1801 10.8335 34.7701C11.4035 35.3601 12.1635 35.6901 12.9835 35.6901H15.9135C18.6835 35.6901 21.1835 34.0501 22.2735 31.5201L23.6735 28.4601L24.6335 29.0001C24.8535 29.1201 24.9535 29.3801 24.8535 29.6401L22.7635 35.7701C22.2135 37.2701 22.9835 38.9301 24.4835 39.4801C24.8035 39.6001 25.1335 39.6601 25.4835 39.6601C26.6935 39.6601 27.7835 38.9001 28.2035 37.7501L30.2935 31.6201C31.3135 28.8301 30.2635 25.7901 27.8035 24.2001L28.4535 22.4401L29.1235 23.5801C30.0035 25.0801 31.6235 26.0101 33.3635 26.0101H36.4135C37.9135 26.0101 39.1435 24.7901 39.1435 23.2801C39.1435 21.7701 37.9235 20.5501 36.4135 20.5501ZM20.6735 30.8101C19.8535 32.7101 17.9835 33.9401 15.9135 33.9401H12.9835C12.6435 33.9401 12.3335 33.8101 12.0935 33.5601C11.8635 33.3201 11.7335 32.9901 11.7535 32.6601C11.7835 32.0001 12.3235 31.4801 12.9835 31.4801H15.7335C17.1535 31.4801 18.4335 30.6401 18.9835 29.3501L20.2635 26.5401C20.2635 26.5401 20.3535 26.6001 20.3935 26.6301L22.1235 27.5901L20.6635 30.7901L20.6735 30.8101ZM36.4135 24.2601H33.3635C32.2435 24.2601 31.2035 23.6601 30.6335 22.6901L29.2435 20.3001L30.1035 17.9601C30.2735 17.5101 30.0335 17.0001 29.5835 16.8401C29.1335 16.6801 28.6235 16.9101 28.4635 17.3601L26.2835 23.3001L25.7535 23.0101C25.3335 22.7701 24.7935 22.9301 24.5635 23.3501C24.3235 23.7701 24.4835 24.3101 24.9035 24.5401L26.5935 25.4801C28.5635 26.5701 29.4335 28.9001 28.6435 31.0401L26.5535 37.1701C26.3435 37.7401 25.6435 38.0601 25.0935 37.8501C24.5035 37.6301 24.1935 36.9701 24.4235 36.3601L26.5135 30.2301C26.9035 29.1801 26.4735 28.0201 25.4935 27.4801L21.2735 25.1301C20.0635 24.4801 19.5235 23.1301 19.9835 21.8901L21.9435 16.2201C22.0935 15.7801 21.9335 15.3001 21.5435 15.0401C21.1635 14.7801 20.6435 14.8101 20.2935 15.1201L14.9135 19.8301C14.6235 20.0801 14.2635 20.2001 13.8835 20.1801C13.5035 20.1501 13.1635 19.9801 12.9135 19.6901C12.6635 19.4001 12.5435 19.0301 12.5735 18.6401C12.6035 18.2601 12.7835 17.9101 13.0835 17.6601L19.5435 12.3601C20.3735 11.6701 21.5035 11.4401 22.5435 11.7101C22.7835 11.7701 23.0135 11.8301 23.1335 11.8501L28.2735 13.5301C29.2935 13.8401 30.0335 14.5601 30.3235 15.5001L31.8335 20.7301C32.0935 21.6401 33.0035 22.3201 33.9535 22.3201H36.4435C36.9835 22.3201 37.4235 22.7601 37.4235 23.3001C37.4235 23.8401 36.9835 24.2801 36.4435 24.2801L36.4135 24.2601Z" fill="#2B2A80"/>
</svg>
