<svg width="50" height="36" viewBox="0 0 50 36" fill="none" xmlns="http://www.w3.org/2000/svg">
<path d="M38.125 17.9707C38.125 13.2832 35.6055 9.00586 31.5625 6.66211C27.4609 4.25977 22.4805 4.25977 18.4375 6.66211C14.3359 9.00586 11.875 13.2832 11.875 17.9707C11.875 22.7168 14.3359 26.9941 18.4375 29.3379C22.4805 31.7402 27.4609 31.7402 31.5625 29.3379C35.6055 26.9941 38.125 22.7168 38.125 17.9707ZM10 17.9707C10 12.6387 12.8125 7.7168 17.5 5.02148C22.1289 2.32617 27.8125 2.32617 32.5 5.02148C37.1289 7.7168 40 12.6387 40 17.9707C40 23.3613 37.1289 28.2832 32.5 30.9785C27.8125 33.6738 22.1289 33.6738 17.5 30.9785C12.8125 28.2832 10 23.3613 10 17.9707ZM19.6094 22.0723C20.6641 23.3027 22.4219 24.5332 25 24.5332C27.5195 24.5332 29.3359 23.3027 30.332 22.0723C30.6836 21.6621 31.2695 21.6621 31.6797 21.9551C32.0898 22.3066 32.0898 22.8926 31.7969 23.3027C30.4492 24.8262 28.2227 26.4082 25 26.4082C21.7188 26.4082 19.4922 24.8262 18.1445 23.3027C17.8516 22.8926 17.8516 22.3066 18.2617 21.9551C18.6719 21.6621 19.2578 21.6621 19.6094 22.0723ZM18.9062 15.1582C18.9062 14.3965 19.5508 13.752 20.3125 13.752C21.0742 13.752 21.7188 14.3965 21.7188 15.1582C21.7188 15.9785 21.0742 16.5645 20.3125 16.5645C19.5508 16.5645 18.9062 15.9785 18.9062 15.1582ZM29.6875 13.752C30.4492 13.752 31.0938 14.3965 31.0938 15.1582C31.0938 15.9785 30.4492 16.5645 29.6875 16.5645C28.9258 16.5645 28.2812 15.9785 28.2812 15.1582C28.2812 14.3965 28.9258 13.752 29.6875 13.752Z" fill="#2B2A80"/>
</svg>
