<svg width="50" height="36" viewBox="0 0 50 36" fill="none" xmlns="http://www.w3.org/2000/svg">
<path d="M30.4072 6.31909C32.4034 6.31909 35.0452 6.31909 36.0091 10.4228L39.6832 24.4073C40.6108 27.6539 39.3967 29.9729 37.4005 29.9729H35.0452" stroke="#2B2A80" stroke-width="1.5" stroke-miterlimit="10" stroke-linecap="round"/>
<path d="M31.3037 6.36035H14.1639C11.8642 6.36035 10 8.2246 10 10.5243V27.664C10 29.9637 11.8642 31.8279 14.1639 31.8279H31.3037C33.6033 31.8279 35.4676 29.9637 35.4676 27.664V10.5243C35.4676 8.2246 33.6033 6.36035 31.3037 6.36035Z" stroke="#2B2A80" stroke-width="1.5" stroke-miterlimit="10" stroke-linecap="round"/>
<path d="M16.7685 4V8.72081" stroke="#2B2A80" stroke-width="1.5" stroke-miterlimit="10" stroke-linecap="round"/>
<path d="M10.9276 13.2761L35.0452 13.2761" stroke="#2B2A80" stroke-width="1.5" stroke-miterlimit="10" stroke-linecap="round"/>
<path d="M15.5656 18.8416L30.4072 18.8416" stroke="#2B2A80" stroke-width="1.5" stroke-miterlimit="10" stroke-linecap="round"/>
<path d="M15.5656 25.3347L30.4072 25.3347" stroke="#2B2A80" stroke-width="1.5" stroke-miterlimit="10" stroke-linecap="round"/>
<path d="M28.6991 4V8.72081" stroke="#2B2A80" stroke-width="1.5" stroke-miterlimit="10" stroke-linecap="round"/>
</svg>
