<svg width="50" height="36" viewBox="0 0 50 36" fill="none" xmlns="http://www.w3.org/2000/svg">
<path d="M41.3546 29.2564L39.8846 25.9964C38.8746 23.7964 36.7146 22.3864 34.2646 22.2964C33.8846 22.2664 33.5646 21.9964 33.4746 21.6164L31.1046 12.9364C30.9846 12.5264 30.6946 12.1964 30.3146 12.0264C29.9046 11.8564 29.4446 11.8764 29.0746 12.0864C27.1346 13.1364 25.4846 13.0664 24.1546 11.8864C22.6346 10.5264 21.8046 8.24635 21.8546 8.00635C22.6046 5.61635 23.0646 3.68635 21.6246 2.42635C21.2946 2.11635 20.8546 1.96635 20.3946 2.00635C19.9546 2.03635 19.5346 2.24635 19.2246 2.57635L10.3546 12.3664C10.3146 12.4264 10.2746 12.4964 10.2446 12.5764L8.59465 14.4564C8.18465 14.9164 7.96465 15.5464 8.00465 16.1664C8.04465 16.7764 8.32465 17.3364 8.79465 17.7264L24.9346 31.8364C25.2846 32.1564 25.6746 32.4464 26.0846 32.7164H14.8946C14.4346 32.7164 14.1046 33.0464 14.1046 33.5064C14.1046 33.9664 14.4346 34.2964 14.8946 34.2964H31.4546L38.9246 34.2564C40.4146 34.2564 41.6246 33.0464 41.6246 31.5564V30.1864C41.6246 29.8764 41.5346 29.5464 41.3546 29.2564ZM23.0246 12.9964C24.8046 14.5964 27.1246 14.7764 29.5646 13.5164L29.8846 14.6664L28.0746 15.2164C27.8446 15.2564 27.6546 15.3864 27.5446 15.5864C27.4346 15.7864 27.4146 16.0164 27.5146 16.2464C27.6646 16.5464 27.9646 16.7464 28.2646 16.7464H28.3846L30.3146 16.1664L30.6246 17.2864L28.6246 17.8664C28.3946 17.9064 28.2046 18.0364 28.0946 18.2364C27.9846 18.4364 27.9646 18.6664 28.0646 18.9064C28.2146 19.2064 28.5146 19.4064 28.8146 19.4064H28.9346L31.0546 18.7964L31.3946 20.0164L29.5046 20.5664C29.2746 20.6064 29.0846 20.7364 28.9746 20.9364C28.8646 21.1364 28.8446 21.3664 28.9446 21.5964C29.0946 21.8964 29.3946 22.0964 29.6946 22.0964C29.7446 22.0964 29.8646 22.0964 29.9846 22.0264L31.8146 21.5164L31.9446 21.9764C32.1846 23.0464 33.0946 23.7964 34.2046 23.8464C36.0746 23.9264 37.7146 24.9964 38.4846 26.6564L39.2646 28.4164L31.4346 28.4564C30.4746 28.4564 29.5246 28.0963 28.8146 27.4664L12.0846 12.7964L20.3346 3.52635C20.3346 3.52635 20.3546 3.50635 20.3846 3.50635C20.4246 3.50635 20.4746 3.50635 20.4946 3.52635C21.1746 4.13635 20.9646 5.27635 20.2646 7.44635C19.8946 8.59635 21.3746 11.5464 23.0246 12.9864V12.9964ZM40.0846 30.2264V31.5964C40.0846 32.2164 39.5846 32.7164 38.9646 32.7164H31.4146C29.4246 32.7164 27.4746 31.9964 25.9346 30.6964L9.80465 16.5564C9.64465 16.3964 9.54465 16.1964 9.54465 16.0364C9.54465 15.7764 9.60465 15.5864 9.74465 15.4564L11.0346 13.9964L27.8046 28.6464C28.7746 29.5264 30.1046 30.0264 31.4546 30.0264H39.8846C39.9546 30.0264 39.9846 30.0364 40.0046 30.0564C40.0246 30.0764 40.0346 30.0964 40.0446 30.0964C40.0746 30.1364 40.0846 30.1564 40.0846 30.2264Z" fill="#2B2A80"/>
<path d="M14.8946 30.3063H19.7946C20.2546 30.3063 20.5846 29.9763 20.5846 29.5163C20.5846 29.0563 20.2546 28.7263 19.7946 28.7263H14.8946C14.4346 28.7263 14.1046 29.0563 14.1046 29.5163C14.1046 29.9763 14.4346 30.3063 14.8946 30.3063Z" fill="#2B2A80"/>
<path d="M14.4347 24.7463C14.4347 24.2863 14.1047 23.9563 13.6447 23.9563H9.70467C9.24467 23.9563 8.91467 24.2863 8.91467 24.7463C8.91467 25.2063 9.24467 25.5363 9.70467 25.5363H13.6447C14.1047 25.5363 14.4347 25.2063 14.4347 24.7463Z" fill="#2B2A80"/>
</svg>
