<svg width="1394" height="1028" viewBox="0 0 1394 1028" fill="none" xmlns="http://www.w3.org/2000/svg">
<g opacity="0.5">
<path opacity="0.8" d="M-82.144 621.636C-326.065 748.875 -595.564 564.532 -801.767 618.36L-570.384 1179.53L1561.51 1191.24L1929.96 -347.488C1683.82 -199.766 1141.87 656.102 649.521 536.133C384.108 471.46 181.066 484.335 -82.144 621.636Z" fill="url(#paint0_linear_8418_15990)" fill-opacity="0.8" stroke="#4FAFE5" stroke-width="2"/>
<path d="M291.355 596.722C111.717 712.558 -112.234 587.728 -268.308 643.842L-143.492 1126.62L1450.51 1325.84L1525.18 253.555C1345.42 385.481 1245.56 539.054 853.419 479.693C642.027 447.693 485.199 471.725 291.355 596.722Z" fill="url(#paint1_linear_8418_15990)" fill-opacity="0.9" stroke="#4FAFE5" stroke-width="2"/>
</g>
<circle cx="32.1025" cy="568.429" r="4" transform="rotate(3.98357 32.1025 568.429)" fill="#4FAFE5"/>
<circle cx="369.28" cy="550.805" r="4" transform="rotate(3.98357 369.28 550.805)" fill="#4FAFE5"/>
<circle cx="1024.8" cy="492.207" r="4" transform="rotate(3.98357 1024.8 492.207)" fill="#4FAFE5"/>
<circle cx="1267.83" cy="298.623" r="4" transform="rotate(3.98357 1267.83 298.623)" fill="#4FAFE5"/>
<defs>
<linearGradient id="paint0_linear_8418_15990" x1="326.908" y1="739.366" x2="330.989" y2="519.476" gradientUnits="userSpaceOnUse">
<stop stop-color="#0079BC" stop-opacity="0"/>
<stop offset="1" stop-color="#0079BC"/>
</linearGradient>
<linearGradient id="paint1_linear_8418_15990" x1="649.728" y1="740.791" x2="623.108" y2="525.73" gradientUnits="userSpaceOnUse">
<stop stop-color="#6FCCFF" stop-opacity="0"/>
<stop offset="1" stop-color="#6FCCFF" stop-opacity="0.5"/>
</linearGradient>
</defs>
</svg>
