<svg width="61" height="61" viewBox="0 0 61 61" fill="none" xmlns="http://www.w3.org/2000/svg">
<g clip-path="url(#clip0_11103_19608)">
<path d="M37.1904 3.88965C39.7728 3.88965 43.1904 3.88965 44.4374 9.19842L49.1905 27.2897C50.3905 31.4897 48.8198 34.4897 46.2374 34.4897H43.1904" stroke="#2B2A80" stroke-width="1.94049" stroke-miterlimit="10" stroke-linecap="round"/>
<path d="M38.3517 3.94336H16.1787C13.2037 3.94336 10.792 6.35507 10.792 9.33006V31.5031C10.792 34.4781 13.2037 36.8898 16.1787 36.8898H38.3517C41.3267 36.8898 43.7384 34.4781 43.7384 31.5031V9.33006C43.7384 6.35507 41.3267 3.94336 38.3517 3.94336Z" stroke="#2B2A80" stroke-width="1.94049" stroke-miterlimit="10" stroke-linecap="round"/>
<path d="M19.5469 0.889648V6.99678" stroke="#2B2A80" stroke-width="1.94049" stroke-miterlimit="10" stroke-linecap="round"/>
<path d="M11.9922 12.8896L43.1922 12.8896" stroke="#2B2A80" stroke-width="1.94049" stroke-miterlimit="10" stroke-linecap="round"/>
<path d="M17.9932 20.0898L37.1932 20.0898" stroke="#2B2A80" stroke-width="1.94049" stroke-miterlimit="10" stroke-linecap="round"/>
<path d="M17.9932 28.4897L37.1932 28.4897" stroke="#2B2A80" stroke-width="1.94049" stroke-miterlimit="10" stroke-linecap="round"/>
<path d="M34.9834 0.889648V6.99678" stroke="#2B2A80" stroke-width="1.94049" stroke-miterlimit="10" stroke-linecap="round"/>
<circle cx="27.0329" cy="11.7824" r="6.05434" fill="#DCF1FF" fill-opacity="0.66"/>
<circle cx="27.0329" cy="11.7824" r="6.05434" fill="#36B5FC" fill-opacity="0.1"/>
<circle cx="27.0305" cy="11.7825" r="3.26003" fill="#36B5FC"/>
</g>
<defs>
<clipPath id="clip0_11103_19608">
<rect width="60" height="60" fill="white" transform="translate(0.195312 0.889648)"/>
</clipPath>
</defs>
</svg>
