<svg width="61" height="61" viewBox="0 0 61 61" fill="none" xmlns="http://www.w3.org/2000/svg">
<g clip-path="url(#clip0_11103_19636)">
<path d="M17.2148 5.7417C17.5075 5.64782 17.8274 5.66943 18.1035 5.80225L36.3086 14.563L36.5459 14.6821C37.7239 15.2945 38.7169 16.1941 39.4229 17.2935L39.5596 17.5151C40.2236 18.6351 40.572 19.9049 40.5674 21.1978V46.7095C40.5673 47.0086 40.4434 47.2947 40.2246 47.5054C40.0058 47.716 39.7096 47.8344 39.4014 47.8345C39.1315 47.8345 38.8706 47.7443 38.6631 47.5806L38.5781 47.5054C38.3593 47.2947 38.2354 47.0087 38.2354 46.7095V21.1978L38.2236 20.8384C38.1743 20.1235 37.9703 19.426 37.624 18.7915L37.4385 18.48C36.9795 17.7652 36.3464 17.1706 35.5957 16.7476L35.2676 16.5776L17.0625 7.81592C16.821 7.69959 16.6295 7.50641 16.5195 7.27002L16.4775 7.16553C16.3794 6.88186 16.4022 6.57237 16.541 6.30518L16.5977 6.2085C16.7411 5.98948 16.9587 5.82396 17.2148 5.7417Z" fill="#2B2A80" stroke="#2B2A80" stroke-width="0.15"/>
<path d="M47.6454 25.0888C50.1245 20.8216 50.1029 15.3327 47.1349 10.9851C45.9125 9.19437 44.3276 7.79864 42.5455 6.82904C39.8536 5.3644 36.7115 4.87211 33.6885 5.45947" stroke="#2B2A80" stroke-width="2.25" stroke-linecap="round"/>
<path d="M6.63965 22.2588C6.88154 22.1653 7.14962 22.1586 7.39746 22.2422L7.50098 22.2832C7.73707 22.3901 7.93028 22.5768 8.04688 22.8125L8.13379 22.9785C8.58818 23.8026 9.35713 24.5521 10.3555 25.2158C11.4199 25.9234 12.7414 26.531 14.208 27.0264C17.1412 28.0171 20.6494 28.5566 23.8359 28.5566L23.9795 28.5654C24.1214 28.5837 24.2591 28.6294 24.3848 28.7002L24.5049 28.7793C24.6199 28.8651 24.7184 28.9721 24.7939 29.0957L24.8613 29.2236C24.9204 29.3552 24.9536 29.4974 24.96 29.6426L24.958 29.7871C24.9501 29.8833 24.93 29.9782 24.8984 30.0693L24.8428 30.2021C22.5862 34.7666 23.3371 40.6933 26.8711 46.0566L26.9297 46.1533C26.9826 46.2517 27.0206 46.3577 27.043 46.4678C27.0654 46.5781 27.0719 46.6911 27.0615 46.8027L27.0459 46.9141C27.0246 47.0247 26.9867 47.1313 26.9346 47.2305L26.8779 47.3271C26.8163 47.4207 26.7409 47.5041 26.6553 47.5752L26.5654 47.6426C26.4728 47.705 26.3719 47.7538 26.2656 47.7861L26.1572 47.8125C26.0477 47.8341 25.9358 47.8397 25.8252 47.8281L25.7148 47.8105C25.5694 47.7803 25.4313 47.7212 25.3086 47.6367C25.1857 47.5521 25.0802 47.4432 24.999 47.3174V47.3164C21.4098 41.867 20.3949 35.8168 22.1611 30.7812C19.2939 30.6214 15.8663 30.0588 12.8604 28.96C9.91771 27.8842 7.36457 26.2909 6.14844 24.0488L6.03516 23.8291C5.90198 23.5596 5.87955 23.2478 5.97363 22.9619L6.01465 22.8564C6.12025 22.618 6.30469 22.4218 6.53809 22.3037L6.63965 22.2588Z" fill="#2B2A80" stroke="#2B2A80" stroke-width="0.15"/>
<path d="M29.0527 20.5288C29.2687 20.5288 29.4715 20.6228 29.6172 20.7827L29.668 20.8452C29.78 20.9953 29.8398 21.1809 29.8398 21.3706L29.8535 21.7104C29.9148 22.4992 30.1828 23.2528 30.626 23.8784C31.1324 24.5932 31.8381 25.0993 32.6289 25.3218L32.7656 25.3755C32.896 25.4417 33.0065 25.5446 33.085 25.6714L33.1514 25.8032C33.1881 25.8948 33.2089 25.9924 33.2139 26.0913L33.209 26.2397C33.1918 26.3884 33.1378 26.5303 33.0518 26.6499L32.9561 26.7612C32.8134 26.899 32.6256 26.9771 32.4277 26.9771V26.978C32.3587 26.9782 32.2899 26.969 32.2236 26.9497V26.9487C31.1584 26.648 30.2101 25.9933 29.5068 25.0806L29.3701 24.895C28.6999 23.9483 28.3175 22.7995 28.2705 21.6099L28.2656 21.3716V21.3706L28.2793 21.2095C28.3081 21.051 28.3796 20.9021 28.4883 20.7827L28.5459 20.7261C28.6852 20.6008 28.8637 20.5288 29.0527 20.5288Z" fill="#2B2A80" stroke="#2B2A80" stroke-width="0.45"/>
<path d="M52.7539 24.3325L46.7499 27.8672L44.3606 21.3237" stroke="#2B2A80" stroke-width="2.25" stroke-miterlimit="10" stroke-linecap="round" stroke-linejoin="round"/>
<path d="M36.3135 9.87012L31.0143 5.34681L36.4211 0.954412" stroke="#2B2A80" stroke-width="2.25" stroke-miterlimit="10" stroke-linecap="round" stroke-linejoin="round"/>
<circle cx="46.8432" cy="10.4101" r="7.02" fill="#DCF1FF" fill-opacity="0.66"/>
<circle cx="46.8432" cy="10.4101" r="7.02" fill="#36B5FC" fill-opacity="0.1"/>
<circle cx="46.8435" cy="10.4099" r="3.78" fill="#36B5FC"/>
</g>
<defs>
<clipPath id="clip0_11103_19636">
<rect width="60" height="60" fill="white" transform="translate(0.195312 0.889648)"/>
</clipPath>
</defs>
</svg>
