<svg width="61" height="61" viewBox="0 0 61 61" fill="none" xmlns="http://www.w3.org/2000/svg">
<g clip-path="url(#clip0_11103_19626)">
<path fill-rule="evenodd" clip-rule="evenodd" d="M24.1599 49.4067C23.8629 49.3793 23.5889 49.2351 23.3982 49.0058C23.2075 48.7765 23.1157 48.4809 23.1429 48.1839L24.0463 38.3772L28.5958 40.7847L29.6431 34.4915C29.6922 34.1971 29.8562 33.9343 30.0991 33.7609C30.2193 33.6751 30.3553 33.6137 30.4992 33.5804C30.6432 33.5471 30.7923 33.5424 30.938 33.5667C31.0838 33.591 31.2233 33.6438 31.3486 33.722C31.474 33.8003 31.5827 33.9024 31.6686 34.0226C31.7544 34.1429 31.8158 34.2789 31.8491 34.4228C31.8824 34.5668 31.8871 34.7159 31.8628 34.8616L30.3035 44.2328L25.9768 41.9446L25.3839 48.3897C25.3703 48.5369 25.3279 48.6799 25.2591 48.8107C25.1902 48.9415 25.0963 49.0574 24.9826 49.1518C24.8689 49.2463 24.7378 49.3174 24.5966 49.3611C24.4554 49.4049 24.307 49.4204 24.1599 49.4067ZM8.4009 34.28C8.32878 34.151 8.28278 34.0091 8.26552 33.8623C8.24825 33.7156 8.26007 33.5669 8.30029 33.4247C8.34051 33.2825 8.40835 33.1496 8.49993 33.0337C8.59151 32.9177 8.70503 32.8209 8.83402 32.7488L17.7699 27.755L18.3875 33.1066L24.5109 30.2491C24.7814 30.123 25.0908 30.1096 25.3712 30.2117C25.6516 30.3138 25.88 30.5231 26.006 30.7936C26.1321 31.0641 26.1455 31.3735 26.0434 31.6539C25.9413 31.9343 25.732 32.1627 25.4615 32.2887L16.5099 36.4658L15.9215 31.3662L9.93202 34.7131C9.67166 34.8584 9.36427 34.8944 9.07739 34.8132C8.7905 34.732 8.54647 34.5402 8.4009 34.28ZM13.631 11.5539C13.7858 11.299 14.0355 11.116 14.3251 11.0452C14.6147 10.9743 14.9207 11.0213 15.1756 11.1758L24.1385 16.6152L19.6644 19.8811L25.3659 23.939C25.4863 24.0247 25.5886 24.1332 25.6671 24.2585C25.7455 24.3837 25.7986 24.5232 25.8231 24.6689C25.8477 24.8146 25.8433 24.9638 25.8102 25.1078C25.7771 25.2518 25.716 25.3879 25.6303 25.5083C25.5446 25.6288 25.436 25.7311 25.3108 25.8096C25.1855 25.888 25.0461 25.941 24.9003 25.9656C24.7546 25.9901 24.6055 25.9857 24.4614 25.9526C24.3174 25.9195 24.1813 25.8584 24.0609 25.7727L15.8158 19.9047L20.0863 16.7885L14.009 13.0985C13.7542 12.9437 13.5712 12.694 13.5003 12.4044C13.4295 12.1148 13.4765 11.8088 13.631 11.5539ZM38.2708 6.8131C38.5643 6.86522 38.8251 7.03169 38.9959 7.27594C39.1668 7.5202 39.2337 7.82228 39.182 8.11585L37.4923 17.7031L33.2139 14.966L31.6771 21.0444C31.6024 21.3319 31.417 21.5782 31.1614 21.7295C30.9058 21.8808 30.6007 21.9249 30.3127 21.8521C30.0247 21.7794 29.7771 21.5956 29.6241 21.341C29.471 21.0864 29.4249 20.7816 29.4958 20.4931L31.7975 11.3874L35.8621 13.9895L36.9669 7.72548C36.9926 7.57994 37.0467 7.44088 37.1261 7.31626C37.2055 7.19163 37.3087 7.08388 37.4298 6.99915C37.5509 6.91442 37.6875 6.85438 37.8318 6.82246C37.9761 6.79054 38.1252 6.78736 38.2708 6.8131ZM52.4424 22.5912C52.5135 22.7207 52.5585 22.863 52.5746 23.0098C52.5908 23.1567 52.5779 23.3053 52.5366 23.4471C52.4954 23.589 52.4266 23.7214 52.3341 23.8366C52.2417 23.9519 52.1275 24.0478 51.998 24.119L43.43 28.8181L42.8866 23.7455L37.1525 26.3667C36.881 26.4908 36.5713 26.502 36.2915 26.3978C36.0118 26.2936 35.7849 26.0825 35.6608 25.811C35.5366 25.5395 35.5255 25.2298 35.6297 24.95C35.7339 24.6702 35.945 24.4433 36.2165 24.3192L44.7901 20.402L45.3076 25.2215L50.9158 22.1457C51.1773 22.0025 51.485 21.969 51.7713 22.0525C52.0575 22.136 52.2989 22.3298 52.4424 22.5912ZM46.6036 42.983C46.4488 43.2378 46.1992 43.4208 45.9096 43.4917C45.6199 43.5625 45.314 43.5155 45.059 43.361L36.6001 38.2276L40.7818 35.1755L35.5483 31.4506C35.4279 31.3649 35.3255 31.2563 35.2471 31.1311C35.1686 31.0059 35.1156 30.8664 35.0911 30.7207C35.0665 30.5749 35.0709 30.4258 35.104 30.2818C35.1371 30.1377 35.1982 30.0016 35.2839 29.8812C35.4569 29.6381 35.7195 29.4736 36.0138 29.424C36.1596 29.3995 36.3087 29.4039 36.4527 29.4369C36.5968 29.47 36.7329 29.5312 36.8533 29.6168L44.6293 35.1518L40.6524 38.0544L46.2256 41.4372C46.352 41.5139 46.462 41.6147 46.5494 41.7338C46.6367 41.853 46.6998 41.9882 46.7349 42.1318C46.77 42.2753 46.7764 42.4244 46.7539 42.5704C46.7314 42.7165 46.6803 42.8567 46.6036 42.983Z" fill="#2B2A80"/>
<circle cx="29.9164" cy="27.8895" r="7.27381" fill="#DCF1FF" fill-opacity="0.66"/>
<circle cx="29.9164" cy="27.8895" r="7.27381" fill="#36B5FC" fill-opacity="0.1"/>
<circle cx="29.9167" cy="27.8893" r="3.91667" fill="#36B5FC"/>
</g>
<defs>
<clipPath id="clip0_11103_19626">
<rect width="60" height="60" fill="white" transform="translate(0.195312 0.889648)"/>
</clipPath>
</defs>
</svg>
