<svg width="61" height="61" viewBox="0 0 61 61" fill="none" xmlns="http://www.w3.org/2000/svg">
<g clip-path="url(#clip0_11103_19595)">
<path d="M20.8428 0.950195C21.1374 0.852003 21.4586 0.874828 21.7363 1.01367L41.2754 10.7822C42.6385 11.458 43.7851 12.5026 44.585 13.7969C45.3847 15.091 45.8059 16.5832 45.8008 18.1045V46.5527C45.8008 46.8632 45.6776 47.1613 45.458 47.3809C45.2384 47.6004 44.9404 47.7236 44.6299 47.7236C44.3194 47.7236 44.0213 47.6004 43.8018 47.3809C43.5822 47.1613 43.459 46.8632 43.459 46.5527V18.1045C43.4629 17.0184 43.1618 15.9532 42.5908 15.0293C42.0197 14.1052 41.201 13.3591 40.2275 12.877L20.6895 3.1084C20.4117 2.96951 20.2007 2.72529 20.1025 2.43066C20.0044 2.13606 20.0271 1.81486 20.166 1.53711C20.3049 1.25936 20.5482 1.04841 20.8428 0.950195Z" fill="#2B2A80"/>
<path d="M20.8428 0.950195C21.1374 0.852003 21.4586 0.874828 21.7363 1.01367L41.2754 10.7822C42.6385 11.458 43.7851 12.5026 44.585 13.7969C45.3847 15.091 45.8059 16.5832 45.8008 18.1045V46.5527C45.8008 46.8632 45.6776 47.1613 45.458 47.3809C45.2384 47.6004 44.9404 47.7236 44.6299 47.7236C44.3194 47.7236 44.0213 47.6004 43.8018 47.3809C43.5822 47.1613 43.459 46.8632 43.459 46.5527V18.1045C43.4629 17.0184 43.1618 15.9532 42.5908 15.0293C42.0197 14.1052 41.201 13.3591 40.2275 12.877L20.6895 3.1084C20.4117 2.96951 20.2007 2.72529 20.1025 2.43066C20.0044 2.13606 20.0271 1.81486 20.166 1.53711C20.3049 1.25936 20.5482 1.04841 20.8428 0.950195Z" stroke="#2B2A80"/>
<circle cx="44.0955" cy="12.9393" r="7.38947" fill="#DCF1FF" fill-opacity="0.66"/>
<circle cx="44.0955" cy="12.9393" r="7.38947" fill="#36B5FC" fill-opacity="0.1"/>
<circle cx="44.0952" cy="12.9394" r="3.97895" fill="#36B5FC"/>
<path d="M8.98047 19.7471C9.25821 19.6082 9.57943 19.5854 9.87402 19.6836C10.1687 19.7818 10.4129 19.9927 10.5518 20.2705C12.5483 24.2631 21.1118 26.6484 28.2373 26.6484C28.4368 26.6483 28.6333 26.6989 28.8076 26.7959C28.982 26.893 29.1294 27.0333 29.2344 27.2031C29.3393 27.373 29.3983 27.5672 29.4072 27.7666C29.4161 27.966 29.3745 28.1644 29.2852 28.3428C26.7514 33.408 27.5998 39.9735 31.5537 45.9033C31.6406 46.031 31.7013 46.1748 31.7324 46.3262C31.7636 46.4777 31.764 46.6343 31.7344 46.7861C31.7048 46.938 31.6453 47.0822 31.5596 47.2109C31.4739 47.3396 31.3639 47.4503 31.2354 47.5361C31.1066 47.622 30.9614 47.6813 30.8096 47.7109C30.6579 47.7405 30.502 47.74 30.3506 47.709C30.199 47.6779 30.0547 47.6173 29.9268 47.5303C29.799 47.4433 29.69 47.3316 29.6055 47.2021C25.5876 41.1742 24.4734 34.4854 26.4834 28.9434C20.0552 28.6083 11.0274 26.458 8.45703 21.3174C8.3182 21.0396 8.29536 20.7184 8.39355 20.4238C8.49177 20.1292 8.70273 19.886 8.98047 19.7471Z" fill="#2B2A80"/>
<path d="M8.98047 19.7471C9.25821 19.6082 9.57943 19.5854 9.87402 19.6836C10.1687 19.7818 10.4129 19.9927 10.5518 20.2705C12.5483 24.2631 21.1118 26.6484 28.2373 26.6484C28.4368 26.6483 28.6333 26.6989 28.8076 26.7959C28.982 26.893 29.1294 27.0333 29.2344 27.2031C29.3393 27.373 29.3983 27.5672 29.4072 27.7666C29.4161 27.966 29.3745 28.1644 29.2852 28.3428C26.7514 33.408 27.5998 39.9735 31.5537 45.9033C31.6406 46.031 31.7013 46.1748 31.7324 46.3262C31.7636 46.4777 31.764 46.6343 31.7344 46.7861C31.7048 46.938 31.6453 47.0822 31.5596 47.2109C31.4739 47.3396 31.3639 47.4503 31.2354 47.5361C31.1066 47.622 30.9614 47.6813 30.8096 47.7109C30.6579 47.7405 30.502 47.74 30.3506 47.709C30.199 47.6779 30.0547 47.6173 29.9268 47.5303C29.799 47.4433 29.69 47.3316 29.6055 47.2021C25.5876 41.1742 24.4734 34.4854 26.4834 28.9434C20.0552 28.6083 11.0274 26.458 8.45703 21.3174C8.3182 21.0396 8.29536 20.7184 8.39355 20.4238C8.49177 20.1292 8.70273 19.886 8.98047 19.7471Z" stroke="#2B2A80"/>
<path d="M32.9219 12.5981C33.2324 12.5982 33.5304 12.7214 33.75 12.9409C33.9695 13.1605 34.0928 13.4585 34.0928 13.769C34.097 15.5811 34.7028 17.3407 35.8154 18.771C36.928 20.2011 38.4841 21.2215 40.2393 21.6714C40.5154 21.7423 40.7568 21.9111 40.917 22.147C41.077 22.3827 41.1452 22.669 41.1094 22.9517C41.0735 23.2344 40.9356 23.4948 40.7217 23.6831C40.5077 23.8714 40.2322 23.9754 39.9473 23.9751C39.8485 23.9754 39.7498 23.9623 39.6543 23.937C37.3966 23.3576 35.3953 22.0448 33.9648 20.2046C32.5343 18.3641 31.7553 16.1001 31.751 13.769C31.751 13.4585 31.8742 13.1605 32.0938 12.9409C32.3133 12.7213 32.6113 12.5981 32.9219 12.5981Z" fill="#2B2A80"/>
<path d="M32.9219 12.5981C33.2324 12.5982 33.5304 12.7214 33.75 12.9409C33.9695 13.1605 34.0928 13.4585 34.0928 13.769C34.097 15.5811 34.7028 17.3407 35.8154 18.771C36.928 20.2011 38.4841 21.2215 40.2393 21.6714C40.5154 21.7423 40.7568 21.9111 40.917 22.147C41.077 22.3827 41.1452 22.669 41.1094 22.9517C41.0735 23.2344 40.9356 23.4948 40.7217 23.6831C40.5077 23.8714 40.2322 23.9754 39.9473 23.9751C39.8485 23.9754 39.7498 23.9623 39.6543 23.937C37.3966 23.3576 35.3953 22.0448 33.9648 20.2046C32.5343 18.3641 31.7553 16.1001 31.751 13.769C31.751 13.4585 31.8742 13.1605 32.0938 12.9409C32.3133 12.7213 32.6113 12.5981 32.9219 12.5981Z" stroke="#2B2A80"/>
</g>
<defs>
<clipPath id="clip0_11103_19595">
<rect width="60" height="60" fill="white" transform="translate(0.195312 0.889648)"/>
</clipPath>
</defs>
</svg>
